{"glyphs":{":":{"x_min":0,"x_max":248,"ha":248,"o":"m 59 289 l 59 451 l 193 451 l 193 289 z m 59 0 l 59 162 l 193 162 l 193 0 z"},"$":{"x_min":0,"x_max":491,"ha":491,"o":"m 462 162 q 462 88 412 46 q 362 4 283 -5 l 283 -65 l 219 -65 l 219 -7 q 163 -5 116 10 q 68 25 37 47 l 56 178 l 164 170 l 160 111 q 174 104 190 100 q 205 96 219 95 l 219 224 l 218 224 q 176 232 136 244 q 95 256 68 284 q 42 313 42 369 q 42 453 98 487 q 155 521 219 527 l 219 593 l 283 593 l 283 528 q 331 524 369 511 q 407 498 434 479 l 447 351 l 339 343 l 327 412 q 306 422 283 425 l 283 323 q 312 318 354 304 q 397 290 430 257 q 462 224 462 162 z m 181 384 q 181 353 219 338 l 219 424 q 181 415 181 384 z m 323 147 q 323 186 283 205 l 283 98 q 323 109 323 147 z"},"?":{"x_min":0,"x_max":481,"ha":481,"o":"m 136 456 l 33 467 l 54 620 q 112 644 164 652 q 215 659 251 659 q 340 659 398 620 q 456 581 456 513 q 456 462 427 432 q 398 402 360 384 q 321 366 292 350 q 263 335 263 312 q 263 284 304 284 l 304 205 q 123 182 123 296 q 123 344 151 368 q 179 393 216 408 q 253 423 281 440 q 309 457 309 491 q 309 542 233 542 q 215 542 191 538 q 167 535 151 527 z m 151 0 l 151 145 l 302 145 l 302 0 z"},"<":{"x_min":0,"x_max":397,"ha":397,"o":"m 344 14 l 25 257 l 25 301 l 343 549 l 343 427 l 156 282 l 344 136 z"},"'":{"x_min":0,"x_max":208,"ha":208,"o":"m 158 377 l 49 377 l 39 650 l 168 650 z"},"=":{"x_min":0,"x_max":545,"ha":545,"o":"m 44 347 l 44 435 l 501 435 l 501 347 z m 44 125 l 44 213 l 501 213 l 501 125 z"},"a":{"x_min":0,"x_max":506,"ha":506,"o":"m 68 419 q 127 443 166 452 q 206 460 261 460 q 334 460 387 422 q 440 384 440 307 l 440 111 q 440 76 471 76 q 480 76 490 79 l 491 11 q 452 -10 410 -10 q 321 -10 311 79 l 311 80 q 292 46 256 18 q 221 -10 166 -10 q 117 -10 72 19 q 27 48 27 119 q 27 202 94 229 q 160 256 237 256 q 280 256 311 252 l 311 267 q 311 302 302 335 q 292 368 237 368 q 217 368 200 366 q 184 363 168 355 l 151 291 l 48 302 z m 311 184 l 311 190 q 295 192 278 194 q 262 196 246 196 q 212 196 186 184 q 160 171 160 134 q 160 112 172 97 q 184 82 213 82 q 247 82 276 106 q 306 131 311 184 z"},"L":{"x_min":0,"x_max":558,"ha":558,"o":"m 527 0 l 39 0 l 39 114 l 109 114 l 109 536 l 39 536 l 39 650 l 334 650 l 334 536 l 243 536 l 243 114 l 413 114 l 433 240 l 547 230 z"},"3":{"x_min":0,"x_max":533,"ha":533,"o":"m 71 492 q 129 516 184 524 q 239 531 272 531 q 362 531 422 492 q 481 452 481 370 q 481 321 456 282 q 430 244 369 219 l 369 215 q 440 201 472 158 q 504 115 504 55 q 504 -46 430 -94 q 356 -141 254 -141 q 146 -141 92 -92 q 38 -44 37 38 l 146 71 q 146 36 170 4 q 194 -27 253 -27 q 310 -27 334 4 q 359 34 359 71 q 359 121 319 142 q 279 163 207 165 l 207 253 q 266 253 294 270 q 321 287 329 310 q 337 332 337 346 q 337 417 253 417 q 235 417 210 414 q 184 410 168 402 l 153 328 l 50 339 z"},";":{"x_min":0,"x_max":249,"ha":249,"o":"m 61 289 l 61 451 l 195 451 l 195 289 z m 192 149 l 132 -85 l 6 -85 l 66 149 z"},"J":{"x_min":0,"x_max":486,"ha":486,"o":"m 457 536 l 397 536 l 397 185 q 397 87 342 38 q 288 -10 200 -10 q 117 -10 72 27 q 26 64 5 113 l 99 184 q 116 140 140 127 q 163 114 187 114 q 228 114 246 134 q 263 154 263 184 l 263 536 l 149 536 l 149 650 l 457 650 z"},"V":{"x_min":0,"x_max":685,"ha":685,"o":"m 679 536 l 620 536 l 389 0 l 296 0 l 66 536 l 5 536 l 5 650 l 274 650 l 274 536 l 215 536 l 348 207 l 354 207 l 484 536 l 423 536 l 423 650 l 679 650 z"},"\"":{"x_min":0,"x_max":387,"ha":387,"o":"m 158 377 l 49 377 l 39 650 l 168 650 z m 338 377 l 229 377 l 219 650 l 348 650 z"},"7":{"x_min":0,"x_max":495,"ha":495,"o":"m 490 458 l 260 -130 l 128 -130 l 345 408 l 141 408 l 141 299 l 24 299 l 24 521 l 474 521 z"},"S":{"x_min":0,"x_max":557,"ha":557,"o":"m 526 197 q 526 96 458 43 q 390 -10 271 -10 q 205 -10 140 7 q 74 24 36 58 l 56 219 l 163 209 l 162 130 q 196 112 220 108 q 244 105 261 105 q 314 105 348 118 q 382 132 382 181 q 382 235 342 254 q 302 272 248 282 q 201 290 154 306 q 106 321 74 356 q 42 392 42 462 q 42 571 116 616 q 190 660 278 660 q 342 660 400 640 q 458 621 489 588 l 495 447 l 388 437 l 379 513 q 354 530 328 536 q 303 542 279 542 q 239 542 212 528 q 186 514 186 479 q 186 438 220 422 q 254 406 298 396 q 338 388 392 374 q 445 359 486 320 q 526 280 526 197 z"},"}":{"x_min":0,"x_max":299,"ha":299,"o":"m 180 271 q 112 279 86 308 q 59 336 59 365 q 59 397 80 444 q 102 490 124 540 q 145 591 145 635 q 145 699 82 699 l 18 699 l 18 786 l 82 786 q 180 786 216 740 q 252 693 252 639 q 252 586 231 531 q 210 476 188 430 q 167 384 167 356 q 167 319 204 309 q 242 299 265 299 l 284 299 l 284 242 l 265 242 q 242 242 204 232 q 167 222 167 186 q 167 159 188 112 q 210 65 231 9 q 252 -47 252 -101 q 252 -160 214 -204 q 176 -247 82 -247 l 18 -247 l 18 -160 l 82 -160 q 145 -160 145 -96 q 145 -52 124 0 q 102 51 80 98 q 59 146 59 178 q 59 206 86 235 q 112 264 180 271 z"},"Z":{"x_min":0,"x_max":589,"ha":589,"o":"m 550 0 l 24 0 l 21 69 l 351 535 l 351 536 l 175 536 l 155 435 l 41 445 l 61 650 l 547 650 l 549 589 l 214 116 l 214 114 l 436 114 l 456 234 l 570 224 z"},"x":{"x_min":0,"x_max":537,"ha":537,"o":"m 523 0 l 296 0 l 296 97 l 329 97 l 263 168 l 198 97 l 227 97 l 227 0 l 16 0 l 16 97 l 78 97 l 202 222 l 66 354 l 21 354 l 21 451 l 249 451 l 249 354 l 218 354 l 279 287 l 344 354 l 314 354 l 314 451 l 510 451 l 510 354 l 465 354 l 342 236 l 479 97 l 523 97 z"},")":{"x_min":0,"x_max":289,"ha":289,"o":"m 105 -183 l -9 -183 q 157 28 157 265 q 157 381 116 498 q 74 614 -9 718 l 107 718 q 190 608 228 494 q 266 379 266 265 q 266 150 227 37 q 188 -76 105 -183 z"},"&":{"x_min":0,"x_max":702,"ha":702,"o":"m 436 385 l 687 385 l 687 271 l 623 271 q 589 194 520 127 q 557 113 591 113 q 625 113 655 126 l 682 16 q 656 2 627 -4 q 598 -10 570 -10 q 488 -10 403 39 q 362 16 318 3 q 274 -10 229 -10 q 158 -10 90 28 q 23 66 23 152 q 23 219 64 254 q 104 290 152 315 q 112 401 112 473 q 112 543 156 602 q 201 660 308 660 q 390 660 440 621 q 490 582 490 511 q 490 444 442 403 q 394 362 300 315 q 356 228 439 170 q 471 210 485 271 l 436 271 z m 358 505 q 358 519 350 540 q 342 562 305 562 q 261 562 252 532 q 242 501 242 484 q 242 433 267 377 q 318 410 338 441 q 358 472 358 505 z m 186 253 q 151 222 151 178 q 151 132 184 116 q 217 99 266 99 q 290 99 315 102 q 237 171 186 253 z"},"_":{"x_min":0,"x_max":502,"ha":502,"o":"m 35 -68 l 467 -68 l 467 -153 l 35 -153 z"},"v":{"x_min":0,"x_max":527,"ha":527,"o":"m 520 354 l 474 354 l 313 0 l 220 0 l 50 354 l 2 354 l 2 451 l 232 451 l 232 354 l 189 354 l 277 165 l 283 165 l 350 354 l 314 354 l 314 451 l 520 451 z"},"O":{"x_min":0,"x_max":712,"ha":712,"o":"m 688 326 q 688 188 600 89 q 511 -10 353 -10 q 194 -10 109 89 q 24 188 24 324 q 24 466 114 563 q 204 660 357 660 q 513 660 600 562 q 688 463 688 326 z m 543 322 q 543 426 495 484 q 447 542 356 542 q 259 542 214 480 q 169 419 169 327 q 169 238 213 173 q 257 108 360 108 q 455 108 499 168 q 543 227 543 322 z"},"(":{"x_min":0,"x_max":289,"ha":289,"o":"m 184 718 l 298 718 q 132 507 132 270 q 132 154 174 37 q 215 -80 298 -183 l 182 -183 q 99 -73 61 42 q 23 156 23 270 q 23 386 62 499 q 102 612 184 718 z"},"C":{"x_min":0,"x_max":644,"ha":644,"o":"m 594 69 q 562 34 492 12 q 421 -10 351 -10 q 212 -10 118 80 q 24 169 24 314 q 24 390 56 470 q 88 550 161 605 q 234 660 357 660 q 440 660 500 636 q 560 611 591 582 l 607 431 l 498 421 l 484 507 q 458 524 421 533 q 384 542 351 542 q 267 542 218 486 q 168 430 168 323 q 168 210 222 159 q 276 108 360 108 q 439 108 484 135 l 498 232 l 607 222 z"},"W":{"x_min":0,"x_max":989,"ha":989,"o":"m 977 536 l 925 536 l 746 0 l 651 0 l 498 420 l 493 420 l 347 0 l 250 0 l 60 536 l 4 536 l 4 650 l 263 650 l 263 536 l 203 536 l 300 222 l 306 222 l 422 536 l 371 536 l 371 650 l 630 650 l 630 536 l 584 536 l 699 216 l 705 216 l 791 536 l 721 536 l 721 650 l 977 650 z"},"A":{"x_min":0,"x_max":687,"ha":687,"o":"m 687 0 l 428 0 l 428 114 l 480 114 l 456 180 l 235 180 l 208 114 l 269 114 l 269 0 l 13 0 l 13 114 l 72 114 l 258 536 l 168 536 l 168 650 l 391 650 l 625 114 l 687 114 z m 420 276 l 352 459 l 346 459 l 273 276 z"},"f":{"x_min":0,"x_max":343,"ha":343,"o":"m 269 698 q 300 698 337 689 q 374 680 405 657 l 425 535 l 325 524 l 303 595 q 282 601 267 601 q 217 601 217 541 l 217 451 l 328 451 l 328 359 l 217 359 l 217 97 l 292 97 l 292 0 l 28 0 l 28 97 l 88 97 l 88 359 l 33 359 l 33 451 l 88 451 l 88 520 q 88 590 134 644 q 180 698 269 698 z"},"Q":{"x_min":0,"x_max":718,"ha":718,"o":"m 688 326 q 688 194 611 102 l 677 34 l 593 -49 l 518 28 q 445 -10 353 -10 q 194 -10 109 89 q 24 188 24 324 q 24 466 114 563 q 204 660 357 660 q 513 660 600 562 q 688 463 688 326 z m 543 322 q 543 426 495 484 q 447 542 356 542 q 259 542 214 480 q 169 419 169 327 q 169 238 213 173 q 257 108 360 108 q 399 108 430 119 l 332 220 l 416 303 l 518 198 q 543 248 543 322 z"},"w":{"x_min":0,"x_max":760,"ha":760,"o":"m 752 354 l 711 354 l 589 0 l 493 0 l 376 270 l 370 270 l 264 0 l 173 0 l 48 354 l 7 354 l 7 451 l 247 451 l 247 354 l 185 354 l 240 178 l 246 178 l 352 451 l 429 451 l 552 182 l 558 182 l 595 354 l 536 354 l 536 451 l 752 451 z"},"-":{"x_min":0,"x_max":321,"ha":321,"o":"m 41 288 l 280 288 l 280 180 l 41 180 z"},"E":{"x_min":0,"x_max":593,"ha":593,"o":"m 541 0 l 39 0 l 39 114 l 109 114 l 109 536 l 39 536 l 39 650 l 535 650 l 555 460 l 441 450 l 421 536 l 243 536 l 243 383 l 517 383 l 517 270 l 243 270 l 243 114 l 427 114 l 447 200 l 561 190 z"},"s":{"x_min":0,"x_max":459,"ha":459,"o":"m 435 138 q 435 63 376 26 q 316 -10 221 -10 q 172 -10 122 0 q 73 11 28 34 l 46 160 l 146 149 l 146 93 q 164 87 184 86 q 204 84 214 84 q 251 84 278 96 q 305 108 305 132 q 305 161 264 170 q 223 179 169 188 q 115 197 74 225 q 33 253 33 320 q 33 403 98 432 q 162 460 231 460 q 321 460 400 419 l 411 304 l 311 293 l 303 356 q 270 367 232 367 q 207 367 190 356 q 172 346 172 324 q 172 295 212 286 q 251 276 304 267 q 356 258 396 230 q 435 203 435 138 z"},">":{"x_min":0,"x_max":395,"ha":395,"o":"m 371 257 l 52 14 l 52 136 l 240 282 l 53 427 l 53 549 l 371 301 z"},"l":{"x_min":0,"x_max":285,"ha":285,"o":"m 267 0 l 18 0 l 18 97 l 78 97 l 78 590 l 13 590 l 13 688 l 207 688 l 207 97 l 267 97 z"},"8":{"x_min":0,"x_max":539,"ha":539,"o":"m 511 170 q 511 86 441 38 q 371 -10 269 -10 q 161 -10 96 33 q 30 76 30 159 q 30 226 69 261 q 108 296 161 319 q 113 346 78 384 q 44 422 44 484 q 44 563 106 612 q 168 660 270 660 q 367 660 428 616 q 488 572 488 498 q 488 442 454 411 q 421 380 375 358 q 428 330 470 287 q 511 244 511 170 z m 354 475 q 354 522 328 537 q 302 552 270 552 q 188 552 188 493 q 188 458 224 435 q 260 412 310 389 q 354 423 354 475 z m 367 168 q 367 210 322 236 q 278 262 222 288 q 196 271 180 248 q 165 225 165 191 q 165 150 192 124 q 218 98 271 98 q 318 98 342 118 q 367 139 367 168 z"},"\\":{"x_min":0,"x_max":421,"ha":421,"o":"m 60 688 l 187 688 l 382 0 l 255 0 z"},"e":{"x_min":0,"x_max":483,"ha":483,"o":"m 463 142 q 458 82 404 36 q 350 -10 253 -10 q 152 -10 86 47 q 21 104 21 217 q 21 321 80 390 q 140 460 247 460 q 341 460 400 406 q 458 352 459 264 q 459 231 452 199 l 156 199 q 167 92 262 92 q 314 92 332 117 q 351 142 355 162 z m 326 274 q 330 308 312 338 q 293 368 247 368 q 207 368 185 342 q 163 316 157 274 z"},"b":{"x_min":0,"x_max":551,"ha":551,"o":"m 530 236 q 530 136 478 63 q 425 -10 323 -10 q 220 -10 178 68 q 176 51 174 34 q 171 17 168 0 l 39 0 q 46 35 51 70 q 56 105 56 139 l 56 590 l -4 590 l -4 688 l 185 688 l 185 365 q 203 404 240 432 q 276 460 337 460 q 422 460 476 401 q 530 342 530 236 z m 396 225 q 396 290 368 324 q 340 358 294 358 q 242 358 214 320 q 185 282 185 232 l 185 221 q 185 166 212 128 q 240 91 291 91 q 335 91 366 124 q 396 156 396 225 z"},"%":{"x_min":0,"x_max":738,"ha":738,"o":"m 184 240 q 108 240 68 282 q 27 323 27 384 q 27 446 70 488 q 112 531 188 531 q 264 531 303 488 q 342 446 342 387 q 342 325 301 282 q 260 240 184 240 z m 635 521 l 426 259 l 231 0 l 97 0 l 332 285 l 501 521 z m 184 322 q 206 322 222 336 q 238 350 238 386 q 238 421 223 435 q 208 449 186 449 q 164 449 148 435 q 131 421 131 385 q 131 350 146 336 q 162 322 184 322 z m 553 -10 q 476 -10 436 32 q 396 73 396 134 q 396 196 438 238 q 480 281 557 281 q 634 281 672 238 q 711 196 711 137 q 711 75 670 32 q 630 -10 553 -10 z m 553 72 q 576 72 592 86 q 607 100 607 136 q 607 171 592 185 q 577 199 555 199 q 532 199 516 185 q 500 171 500 135 q 500 100 516 86 q 531 72 553 72 z"},"m":{"x_min":0,"x_max":876,"ha":876,"o":"m 864 0 l 675 0 l 675 254 q 675 312 656 337 q 636 362 598 362 q 552 362 532 332 q 511 302 511 255 l 511 97 l 571 97 l 571 0 l 382 0 l 382 254 q 382 312 362 337 q 343 362 305 362 q 258 362 238 332 q 218 302 218 255 l 218 97 l 304 97 l 304 0 l 29 0 l 29 97 l 89 97 l 89 353 l 30 353 l 30 451 l 218 451 l 218 383 q 261 460 355 460 q 404 460 445 436 q 486 412 502 363 q 542 460 649 460 q 710 460 757 422 q 804 384 804 304 l 804 97 l 864 97 z"},"#":{"x_min":0,"x_max":574,"ha":574,"o":"m 510 521 l 490 420 l 543 420 l 543 322 l 472 322 l 448 199 l 513 199 l 513 101 l 429 101 l 410 0 l 300 0 l 319 101 l 190 101 l 171 0 l 61 0 l 80 101 l 31 101 l 31 199 l 99 199 l 123 322 l 61 322 l 61 420 l 141 420 l 161 521 l 271 521 l 251 420 l 380 420 l 400 521 z m 209 199 l 338 199 l 362 322 l 233 322 z"},",":{"x_min":0,"x_max":222,"ha":222,"o":"m 3 -85 l 63 149 l 189 149 l 129 -85 z"},"n":{"x_min":0,"x_max":593,"ha":593,"o":"m 581 0 l 332 0 l 332 97 l 392 97 l 392 254 q 392 312 372 337 q 353 362 315 362 q 269 362 244 334 q 219 305 218 259 l 218 97 l 278 97 l 278 0 l 29 0 l 29 97 l 89 97 l 89 353 l 24 353 l 24 451 l 218 451 l 218 382 q 263 460 363 460 q 427 460 474 422 q 521 384 521 304 l 521 97 l 581 97 z"},"h":{"x_min":0,"x_max":581,"ha":581,"o":"m 568 0 l 319 0 l 319 97 l 379 97 l 379 254 q 379 312 358 337 q 338 362 300 362 q 256 362 232 335 q 207 308 205 264 l 205 97 l 265 97 l 265 0 l 16 0 l 16 97 l 76 97 l 76 590 l 16 590 l 16 688 l 205 688 l 205 382 q 250 460 350 460 q 414 460 461 422 q 508 384 508 304 l 508 97 l 568 97 z"},"z":{"x_min":0,"x_max":477,"ha":477,"o":"m 430 0 l 36 0 l 23 68 l 265 354 l 130 354 l 110 285 l 17 293 l 33 451 l 429 451 l 439 383 l 190 97 l 335 97 l 356 168 l 458 158 z"},"B":{"x_min":0,"x_max":622,"ha":622,"o":"m 598 193 q 598 115 546 58 q 493 0 381 0 l 39 0 l 39 114 l 109 114 l 109 536 l 39 536 l 39 650 l 377 650 q 466 650 520 608 q 575 567 575 498 q 575 447 544 409 q 513 371 457 362 l 457 358 q 527 348 562 303 q 598 258 598 193 z m 431 463 q 431 507 404 522 q 378 536 342 536 l 243 536 l 243 384 l 332 384 q 389 384 410 407 q 431 430 431 463 z m 454 198 q 454 280 355 280 l 243 280 l 243 114 l 346 114 q 454 114 454 198 z"},"K":{"x_min":0,"x_max":674,"ha":674,"o":"m 665 0 l 382 0 l 382 114 l 442 114 l 323 274 l 243 274 l 243 114 l 298 114 l 298 0 l 39 0 l 39 114 l 109 114 l 109 536 l 39 536 l 39 650 l 301 650 l 301 536 l 243 536 l 243 383 l 325 383 l 440 536 l 384 536 l 384 650 l 654 650 l 654 536 l 581 536 l 426 341 l 598 114 l 665 114 z"},"R":{"x_min":0,"x_max":638,"ha":638,"o":"m 626 0 l 460 0 l 331 248 l 243 248 l 243 114 l 313 114 l 313 0 l 39 0 l 39 114 l 109 114 l 109 536 l 39 536 l 39 650 l 333 650 q 454 650 519 600 q 584 551 584 453 q 584 387 550 342 q 516 298 460 276 l 548 114 l 626 114 z m 440 450 q 440 499 411 518 q 382 536 309 536 l 243 536 l 243 354 l 307 354 q 384 354 412 379 q 440 404 440 450 z"},"T":{"x_min":0,"x_max":651,"ha":651,"o":"m 629 430 l 515 420 l 495 536 l 392 536 l 392 114 l 498 114 l 498 0 l 158 0 l 158 114 l 258 114 l 258 536 l 155 536 l 135 420 l 21 430 l 41 650 l 609 650 z"},"P":{"x_min":0,"x_max":598,"ha":598,"o":"m 584 438 q 584 327 512 272 q 439 218 343 218 l 243 218 l 243 114 l 343 114 l 343 0 l 39 0 l 39 114 l 109 114 l 109 536 l 39 536 l 39 650 l 337 650 q 458 650 521 593 q 584 536 584 438 z m 440 436 q 440 484 414 510 q 387 536 320 536 l 243 536 l 243 331 l 318 331 q 387 331 414 360 q 440 389 440 436 z"},"|":{"x_min":0,"x_max":244,"ha":244,"o":"m 177 730 l 177 -80 l 67 -80 l 67 730 z"},"t":{"x_min":0,"x_max":398,"ha":398,"o":"m 406 140 q 396 62 352 26 q 308 -10 238 -10 q 163 -10 116 28 q 70 65 70 135 l 70 359 l 6 359 l 6 451 l 70 451 l 70 588 l 199 588 l 199 451 l 361 451 l 361 359 l 199 359 l 199 157 q 199 98 253 98 q 265 98 286 108 q 306 119 312 169 z"},"M":{"x_min":0,"x_max":900,"ha":900,"o":"m 869 536 l 789 536 l 789 114 l 859 114 l 859 0 l 598 0 l 598 114 l 655 114 l 655 362 l 651 362 l 480 53 l 424 53 l 240 374 l 236 374 l 236 114 l 298 114 l 298 0 l 41 0 l 41 114 l 111 114 l 111 536 l 31 536 l 31 650 l 223 650 l 454 247 l 458 247 l 675 650 l 869 650 z"},"g":{"x_min":0,"x_max":568,"ha":568,"o":"m 555 353 l 495 353 l 495 23 q 495 -85 434 -154 q 373 -222 246 -222 q 176 -222 112 -194 q 48 -165 19 -87 l 118 -31 q 166 -120 247 -120 q 299 -120 332 -82 q 366 -45 366 23 l 366 82 q 348 48 313 24 q 278 0 218 0 q 139 0 80 55 q 21 110 21 217 q 21 318 75 389 q 129 460 224 460 q 277 460 312 438 q 347 416 366 381 l 366 451 l 555 451 z m 366 228 l 366 239 q 366 295 338 326 q 309 358 265 358 q 222 358 194 326 q 165 294 165 225 q 165 160 190 131 q 216 102 257 102 q 310 102 338 140 q 366 178 366 228 z"},"j":{"x_min":0,"x_max":265,"ha":265,"o":"m 82 531 l 82 665 l 211 665 l 211 531 z m 211 16 q 211 -112 164 -174 q 117 -235 -14 -222 l -18 -137 q 23 -137 52 -114 q 82 -92 82 16 l 82 353 l 12 353 l 12 451 l 211 451 z"},"i":{"x_min":0,"x_max":299,"ha":299,"o":"m 87 531 l 87 665 l 216 665 l 216 531 z m 281 0 l 32 0 l 32 97 l 92 97 l 92 353 l 27 353 l 27 451 l 221 451 l 221 97 l 281 97 z"},"y":{"x_min":0,"x_max":530,"ha":530,"o":"m 523 354 l 479 354 l 334 0 l 291 -113 l 350 -113 l 350 -213 l 101 -213 l 101 -113 l 173 -113 l 209 -7 l 51 354 l 5 354 l 5 451 l 235 451 l 235 354 l 190 354 l 282 146 l 288 146 l 356 354 l 317 354 l 317 451 l 523 451 z"},"@":{"x_min":0,"x_max":894,"ha":894,"o":"m 292 419 q 334 443 374 452 q 414 460 451 460 q 548 460 598 418 q 649 376 649 307 l 649 111 q 649 92 662 84 q 675 76 689 76 q 730 76 742 124 q 755 173 755 228 q 755 415 670 486 q 585 558 461 558 q 312 558 224 473 q 136 388 136 228 q 136 106 184 32 q 233 -41 310 -74 q 386 -106 469 -106 q 515 -106 568 -95 q 622 -84 667 -52 l 709 -130 q 661 -162 594 -182 q 528 -202 451 -202 q 336 -202 240 -153 q 144 -104 86 -11 q 29 82 29 214 q 29 338 82 438 q 135 537 231 596 q 327 654 456 654 q 554 654 648 616 q 741 577 802 494 q 862 410 862 275 q 862 210 843 144 q 824 78 780 34 q 736 -10 661 -10 q 607 -10 568 14 q 528 39 521 81 q 501 46 466 18 q 430 -10 375 -10 q 326 -10 278 19 q 231 48 231 119 q 231 175 264 204 q 296 234 346 245 q 396 256 449 256 q 465 256 484 255 q 503 254 520 252 l 520 267 q 520 327 504 348 q 489 368 452 368 q 441 368 424 366 q 408 363 392 355 l 368 286 l 270 297 z m 520 190 q 504 192 488 194 q 471 196 455 196 q 420 196 394 184 q 369 171 369 134 q 369 112 381 97 q 393 82 422 82 q 456 82 486 107 q 517 132 520 187 z"},".":{"x_min":0,"x_max":228,"ha":228,"o":"m 37 0 l 37 163 l 190 163 l 190 0 z"},"p":{"x_min":0,"x_max":571,"ha":571,"o":"m 549 236 q 549 136 496 63 q 444 -10 342 -10 q 247 -10 204 57 l 204 -113 l 284 -113 l 284 -213 l 15 -213 l 15 -113 l 75 -113 l 75 354 l 10 354 l 10 451 l 204 451 l 204 365 q 222 404 258 432 q 294 460 356 460 q 442 460 496 401 q 549 342 549 236 z m 415 223 q 415 289 386 324 q 356 358 310 358 q 260 358 234 321 q 207 284 205 227 l 204 211 q 204 156 233 124 q 262 92 310 92 q 356 92 386 124 q 415 156 415 223 z"},"X":{"x_min":0,"x_max":666,"ha":666,"o":"m 658 0 l 393 0 l 393 114 l 439 114 l 327 246 l 224 114 l 278 114 l 278 0 l 6 0 l 6 114 l 76 114 l 258 333 l 81 536 l 21 536 l 21 650 l 282 650 l 282 536 l 238 536 l 340 419 l 434 536 l 387 536 l 387 650 l 643 650 l 643 536 l 583 536 l 409 335 l 600 114 l 658 114 z"},"*":{"x_min":0,"x_max":416,"ha":416,"o":"m 386 532 l 280 479 l 386 426 l 338 351 l 245 414 l 252 309 l 163 309 l 170 413 l 78 351 l 30 426 l 135 479 l 30 532 l 77 607 l 171 543 l 163 650 l 252 650 l 244 542 l 339 607 z"},"Y":{"x_min":0,"x_max":646,"ha":646,"o":"m 636 536 l 580 536 l 391 254 l 391 114 l 497 114 l 497 0 l 157 0 l 157 114 l 257 114 l 257 255 l 62 536 l 4 536 l 4 650 l 273 650 l 273 536 l 219 536 l 328 372 l 334 372 l 442 536 l 380 536 l 380 650 l 636 650 z"},"c":{"x_min":0,"x_max":471,"ha":471,"o":"m 455 168 q 448 106 402 48 q 355 -10 246 -10 q 148 -10 84 47 q 21 104 21 218 q 21 338 90 399 q 159 460 257 460 q 294 460 336 450 q 379 441 420 419 l 440 282 l 337 271 l 322 345 q 283 358 254 358 q 213 358 184 326 q 155 295 155 224 q 155 92 258 92 q 334 92 347 188 z"},"!":{"x_min":0,"x_max":261,"ha":261,"o":"m 207 650 l 177 232 l 83 232 l 53 650 z m 56 0 l 56 145 l 207 145 l 207 0 z"},"/":{"x_min":0,"x_max":376,"ha":376,"o":"m 361 688 l 166 0 l 39 0 l 234 688 z"},"[":{"x_min":0,"x_max":299,"ha":299,"o":"m 67 -248 l 67 785 l 290 785 l 290 698 l 176 698 l 176 -161 l 290 -161 l 290 -248 z"},"6":{"x_min":0,"x_max":536,"ha":536,"o":"m 504 216 q 504 116 442 53 q 379 -10 272 -10 q 144 -10 88 80 q 31 170 31 311 q 31 403 56 482 q 81 562 138 611 q 196 660 295 660 q 350 660 402 640 q 454 620 489 570 l 412 493 q 373 546 290 546 q 231 546 206 505 q 180 464 176 365 q 175 358 175 342 q 192 374 227 397 q 262 420 321 420 q 422 420 463 355 q 504 290 504 216 z m 366 211 q 366 257 346 284 q 326 311 277 311 q 228 311 204 286 q 180 260 178 221 q 183 163 204 136 q 225 108 274 108 q 366 108 366 211 z"},"r":{"x_min":0,"x_max":441,"ha":441,"o":"m 314 457 q 333 457 356 452 q 380 446 403 432 l 423 274 l 325 263 l 308 340 q 288 352 273 352 q 251 352 234 335 q 218 318 218 285 l 218 97 l 298 97 l 298 0 l 29 0 l 29 97 l 89 97 l 89 353 l 24 353 l 24 451 l 208 451 l 208 365 q 219 404 244 430 q 268 457 314 457 z"},"2":{"x_min":0,"x_max":537,"ha":537,"o":"m 71 492 q 129 516 180 524 q 232 531 268 531 q 386 531 434 484 q 481 438 481 379 q 481 314 436 268 q 392 222 325 186 q 258 150 190 114 l 402 114 l 409 173 l 516 163 l 501 0 l 47 0 l 35 106 q 114 156 183 198 q 252 240 294 278 q 337 317 337 358 q 337 390 311 404 q 285 417 250 417 q 232 417 208 414 q 184 410 168 402 l 153 328 l 50 339 z"},"{":{"x_min":0,"x_max":299,"ha":299,"o":"m 119 267 q 186 259 213 230 q 240 202 240 173 q 240 141 218 94 q 197 48 176 -2 q 154 -53 154 -97 q 154 -161 217 -161 l 281 -161 l 281 -248 l 217 -248 q 120 -248 84 -202 q 47 -155 47 -101 q 47 -48 68 7 q 90 62 111 108 q 132 154 132 182 q 132 219 94 229 q 57 239 34 239 l 15 239 l 15 296 l 34 296 q 56 296 94 306 q 132 316 132 352 q 132 379 111 426 q 90 473 68 529 q 47 585 47 639 q 47 698 85 742 q 123 785 217 785 l 281 785 l 281 698 l 217 698 q 154 698 154 634 q 154 590 176 538 q 197 487 218 440 q 240 392 240 360 q 240 332 213 303 q 186 274 119 267 z"},"9":{"x_min":0,"x_max":535,"ha":535,"o":"m 31 305 q 31 405 94 468 q 156 531 263 531 q 391 531 448 441 q 504 351 504 210 q 504 118 479 38 q 454 -41 396 -90 q 338 -139 240 -139 q 184 -139 132 -119 q 80 -99 46 -49 l 123 28 q 162 -25 245 -25 q 304 -25 329 16 q 354 57 359 156 q 360 163 360 179 q 343 148 308 124 q 273 101 214 101 q 113 101 72 166 q 31 232 31 305 z m 169 310 q 169 264 188 237 q 208 210 258 210 q 307 210 331 236 q 355 261 357 300 q 352 358 331 386 q 310 413 261 413 q 169 413 169 310 z"}," ":{"x_min":0,"x_max":187,"ha":187,"o":""},"I":{"x_min":0,"x_max":352,"ha":352,"o":"m 313 0 l 39 0 l 39 114 l 109 114 l 109 536 l 39 536 l 39 650 l 313 650 l 313 536 l 243 536 l 243 114 l 313 114 z"},"H":{"x_min":0,"x_max":761,"ha":761,"o":"m 722 0 l 448 0 l 448 114 l 518 114 l 518 273 l 243 273 l 243 114 l 313 114 l 313 0 l 39 0 l 39 114 l 109 114 l 109 536 l 39 536 l 39 650 l 313 650 l 313 536 l 243 536 l 243 386 l 518 386 l 518 536 l 448 536 l 448 650 l 722 650 l 722 536 l 652 536 l 652 114 l 722 114 z"},"4":{"x_min":0,"x_max":570,"ha":570,"o":"m 451 -130 l 317 -130 l 317 29 l 29 29 l 15 140 l 213 521 l 451 521 l 451 140 l 549 140 l 539 29 l 451 29 z m 317 140 l 317 407 l 279 407 l 143 140 z"},"~":{"x_min":0,"x_max":568,"ha":568,"o":"m 379 176 q 338 176 304 192 q 271 209 240 226 q 210 242 175 242 q 156 242 136 231 q 116 220 90 180 l 19 228 q 82 360 178 360 q 214 360 243 344 q 272 327 303 310 q 334 294 376 294 q 404 294 424 308 q 445 321 470 363 l 550 310 q 522 253 480 214 q 438 176 379 176 z"},"D":{"x_min":0,"x_max":698,"ha":698,"o":"m 673 328 q 673 180 586 90 q 499 0 345 0 l 39 0 l 39 114 l 109 114 l 109 536 l 39 536 l 39 650 l 337 650 q 504 650 588 561 q 673 472 673 328 z m 529 326 q 529 536 334 536 l 243 536 l 243 114 l 334 114 q 428 114 478 164 q 529 214 529 326 z"},"^":{"x_min":0,"x_max":469,"ha":469,"o":"m 189 650 l 270 650 l 441 367 l 323 367 l 230 525 l 147 367 l 28 367 z"},"0":{"x_min":0,"x_max":576,"ha":576,"o":"m 545 254 q 545 118 474 54 q 402 -10 284 -10 q 166 -10 98 53 q 31 116 31 252 q 31 376 97 454 q 163 531 288 531 q 421 531 483 452 q 545 374 545 254 z m 401 261 q 401 353 370 383 q 338 413 287 413 q 233 413 204 382 q 176 350 176 261 q 176 171 205 140 q 234 108 287 108 q 336 108 368 137 q 401 166 401 261 z"},"F":{"x_min":0,"x_max":567,"ha":567,"o":"m 547 450 l 433 440 l 413 536 l 243 536 l 243 354 l 516 354 l 516 241 l 243 241 l 243 114 l 349 114 l 349 0 l 39 0 l 39 114 l 109 114 l 109 536 l 39 536 l 39 650 l 527 650 z"},"`":{"x_min":0,"x_max":440,"ha":440,"o":"m 374 557 l 340 508 l 145 599 l 212 700 z"},"k":{"x_min":0,"x_max":553,"ha":553,"o":"m 539 0 l 308 0 l 308 97 l 350 97 l 272 186 l 205 186 l 205 97 l 246 97 l 246 0 l 16 0 l 16 97 l 76 97 l 76 590 l 11 590 l 11 688 l 205 688 l 205 277 l 280 277 l 346 353 l 292 353 l 292 451 l 518 451 l 518 353 l 469 353 l 372 243 l 500 97 l 539 97 z"},"u":{"x_min":0,"x_max":585,"ha":585,"o":"m 571 0 l 377 0 l 377 69 q 332 -9 232 -9 q 168 -9 121 29 q 74 67 74 147 l 74 354 l 14 354 l 14 451 l 203 451 l 203 197 q 203 138 222 114 q 242 89 280 89 q 326 89 352 119 q 377 149 377 196 l 377 354 l 304 354 l 304 451 l 506 451 l 506 97 l 571 97 z"},"]":{"x_min":0,"x_max":299,"ha":299,"o":"m 232 -248 l 9 -248 l 9 -161 l 123 -161 l 123 698 l 9 698 l 9 785 l 232 785 z"},"U":{"x_min":0,"x_max":719,"ha":719,"o":"m 692 536 l 634 536 l 634 269 q 634 200 608 136 q 582 72 521 31 q 460 -10 356 -10 q 208 -10 147 72 q 86 153 86 258 l 86 536 l 28 536 l 28 650 l 296 650 l 296 536 l 220 536 l 220 262 q 220 195 252 152 q 285 108 363 108 q 440 108 474 152 q 509 196 509 269 l 509 536 l 433 536 l 433 650 l 692 650 z"},"o":{"x_min":0,"x_max":523,"ha":523,"o":"m 503 225 q 503 118 433 54 q 363 -10 255 -10 q 151 -10 86 50 q 20 111 20 220 q 20 319 80 390 q 140 461 262 461 q 384 461 444 390 q 503 320 503 225 z m 370 229 q 370 298 338 330 q 306 362 260 362 q 210 362 182 326 q 153 291 153 227 q 153 169 180 129 q 206 89 259 89 q 309 89 340 126 q 370 164 370 229 z"},"N":{"x_min":0,"x_max":760,"ha":760,"o":"m 733 536 l 663 536 l 663 0 l 588 -1 l 239 412 l 235 412 l 235 114 l 325 114 l 325 0 l 40 0 l 40 114 l 110 114 l 110 536 l 29 536 l 29 650 l 206 650 l 534 264 l 538 264 l 538 536 l 444 536 l 444 650 l 733 650 z"},"+":{"x_min":0,"x_max":401,"ha":401,"o":"m 27 237 l 27 325 l 159 325 l 159 455 l 247 455 l 247 325 l 374 325 l 374 237 l 247 237 l 247 108 l 159 108 l 159 237 z"},"G":{"x_min":0,"x_max":682,"ha":682,"o":"m 658 246 l 626 246 l 626 0 l 522 0 l 509 68 q 479 33 432 12 q 386 -10 323 -10 q 186 -10 106 85 q 25 180 25 320 q 25 460 110 560 q 195 660 360 660 q 439 660 504 637 q 568 614 600 582 l 618 441 l 510 431 l 492 507 q 466 524 426 533 q 387 542 354 542 q 274 542 222 488 q 169 434 169 322 q 169 214 218 161 q 268 108 347 108 q 413 108 452 143 q 491 178 491 242 l 491 246 l 364 246 l 364 359 l 658 359 z"},"q":{"x_min":0,"x_max":551,"ha":551,"o":"m 555 -213 l 286 -213 l 286 -113 l 366 -113 l 366 84 q 347 46 311 18 q 275 -10 214 -10 q 128 -10 74 49 q 21 108 21 214 q 21 314 74 387 q 126 460 228 460 q 283 460 320 437 q 356 414 375 377 q 377 395 380 414 q 384 432 388 451 l 513 451 q 505 410 500 371 q 495 332 495 291 l 495 -113 l 555 -113 z m 366 228 l 366 239 q 366 295 337 326 q 308 358 262 358 q 218 358 186 326 q 155 294 155 225 q 155 160 184 126 q 212 92 255 92 q 308 92 337 135 q 366 178 366 228 z"},"d":{"x_min":0,"x_max":570,"ha":570,"o":"m 556 0 l 367 0 l 367 84 q 348 45 311 18 q 274 -10 213 -10 q 124 -10 73 51 q 22 112 22 217 q 22 318 72 389 q 122 460 223 460 q 278 460 313 438 q 348 416 367 382 l 367 590 l 277 590 l 277 688 l 496 688 l 496 97 l 556 97 z m 367 228 l 367 239 q 367 295 338 326 q 308 358 264 358 q 221 358 188 326 q 156 294 156 225 q 156 160 186 126 q 216 92 257 92 q 308 92 338 135 q 367 178 367 228 z"},"1":{"x_min":0,"x_max":404,"ha":404,"o":"m 387 0 l 43 0 l 43 114 l 153 114 l 153 407 l 43 407 l 43 521 l 287 521 l 287 114 l 387 114 z"},"5":{"x_min":0,"x_max":522,"ha":522,"o":"m 498 71 q 498 -47 424 -94 q 350 -141 248 -141 q 140 -141 86 -92 q 32 -44 31 38 l 140 71 q 140 36 164 4 q 188 -27 247 -27 q 304 -27 328 4 q 353 34 353 71 q 353 134 306 153 q 260 172 200 172 q 176 172 152 170 q 128 168 106 167 l 63 208 l 63 521 l 463 521 l 482 338 l 368 328 l 350 407 l 187 407 l 187 280 q 196 281 206 281 q 215 281 224 281 q 294 281 357 264 q 420 246 459 201 q 498 156 498 71 z"}}}
